<svg xmlns="http://www.w3.org/2000/svg" width="16" height="13" viewBox="0 0 16 13" fill="none">
  <path d="M0.666992 6.74854C0.666992 6.40048 0.925633 6.11284 1.2612 6.06731L1.35449 6.06104L15.1045 6.06104C15.4842 6.06104 15.792 6.36884 15.792 6.74854C15.792 7.09659 15.5334 7.38424 15.1978 7.42976L15.1045 7.43604L1.35449 7.43604C0.974796 7.43604 0.666992 7.12823 0.666992 6.74854Z" fill="#725DFF"/>
  <path d="M9.07351 1.71326C8.80444 1.44535 8.80351 1.01005 9.07141 0.740991C9.31496 0.496388 9.69686 0.473378 9.96643 0.672497L10.0437 0.738897L15.5895 6.2609C15.8348 6.50518 15.8572 6.88845 15.6565 7.15801L15.5896 7.23522L10.0437 12.7581C9.77468 13.0261 9.33938 13.0252 9.07145 12.7561C8.82788 12.5115 8.80648 12.1296 9.00674 11.8608L9.07347 11.7839L14.1298 6.7478L9.07351 1.71326Z" fill="#725DFF"/>
</svg>