<svg xmlns="http://www.w3.org/2000/svg" width="26" height="26" viewBox="0 0 26 26" fill="none">
  <path fill-rule="evenodd" clip-rule="evenodd" d="M12.0109 3.71328V2.16736H13.6124V3.71328C17.3981 4.11311 20.3479 7.31584 20.3479 11.2075V14.1897C20.3479 16.0413 20.9108 17.8491 21.9618 19.3735L22.8273 20.6288H2.7959L3.66143 19.3735C4.71247 17.8491 5.27531 16.0413 5.27531 14.1897V11.2076C5.27531 7.31585 8.22514 4.11311 12.0109 3.71328ZM12.8116 5.27275C9.53391 5.27275 6.87681 7.92985 6.87681 11.2076V14.1897C6.87681 15.8769 6.47921 17.5332 5.72487 19.0273H19.8984C19.144 17.5332 18.7464 15.8769 18.7464 14.1897V11.2075C18.7464 7.92985 16.0893 5.27275 12.8116 5.27275Z" fill="#222222"/>
  <path fill-rule="evenodd" clip-rule="evenodd" d="M8.56445 20.0736V19.8276H10.166V20.0736C10.166 21.5351 11.3507 22.7199 12.8122 22.7199C14.2737 22.7199 15.4584 21.5351 15.4584 20.0736V19.8276H17.06V20.0736C17.06 22.4196 15.1582 24.3214 12.8122 24.3214C10.4662 24.3214 8.56445 22.4196 8.56445 20.0736Z" fill="#222222"/>
</svg>