<svg xmlns="http://www.w3.org/2000/svg" width="18" height="18" viewBox="0 0 18 18" fill="none">
  <rect width="18" height="18" rx="9" fill="#F7931A"/>
  <path fill-rule="evenodd" clip-rule="evenodd" d="M9.71689 8.89583C10.2536 8.7657 10.6595 8.40088 10.7715 7.65011C10.9259 6.62462 10.1708 6.07794 9.13609 5.71646L9.47972 4.3267L8.65954 4.12094L8.32474 5.47399C8.10963 5.41949 7.88846 5.36833 7.66838 5.31828L8.00539 3.95577L7.18576 3.75L6.84214 5.1392C6.66343 5.09861 6.48803 5.05801 6.31815 5.01519L6.31926 5.01129L5.18855 4.72656L4.96517 5.62971C4.96517 5.62971 5.57354 5.77041 5.5603 5.77875C5.8929 5.86272 5.95191 6.08851 5.94088 6.26814L5.54927 7.85143C5.57836 7.85874 5.60692 7.86803 5.63476 7.87924L5.54762 7.85755L4.99936 10.0754C4.958 10.1794 4.8543 10.3356 4.62154 10.2784C4.62981 10.29 4.02585 10.1282 4.02585 10.1282L3.61328 11.097L4.68056 11.3656C4.80083 11.3959 4.91948 11.427 5.03701 11.4579L5.03706 11.4579C5.11355 11.478 5.18955 11.4979 5.26522 11.5174L4.91773 12.9233L5.73625 13.1291L6.08043 11.7387C6.29748 11.7981 6.51518 11.855 6.73348 11.9095L6.39096 13.2942L7.21058 13.5L7.55807 12.0975C8.95684 12.3616 10.0103 12.2459 10.4604 10.9407C10.8228 9.88963 10.451 9.28679 9.71689 8.89583ZM13.4311 12.1974L13.7317 10.9834L14.9357 11.2865L15.136 10.4768L13.9319 10.1742L14.2319 8.96021L13.4294 8.75834L13.1288 9.97236L11.9248 9.66983L11.7245 10.479L12.9286 10.7815L12.6285 11.9961L13.4311 12.1974ZM8.88126 10.3666C9.1247 9.38182 7.70839 9.06208 7.01573 8.9057L7.01568 8.90569C6.93781 8.88811 6.86908 8.8726 6.81289 8.85843L6.35344 10.7198C6.39948 10.7313 6.45347 10.7457 6.51391 10.7618L6.51393 10.7618C7.18332 10.9402 8.6446 11.3296 8.88236 10.3661L8.88126 10.3666ZM7.61054 6.35593C8.18803 6.4844 9.37096 6.74755 9.14982 7.64393C8.93267 8.52075 7.71351 8.19149 7.15668 8.0411C7.10676 8.02762 7.06217 8.01558 7.02409 8.00597L7.44163 6.31702C7.48838 6.32876 7.54564 6.3415 7.61054 6.35593Z" fill="white"/>
</svg>