<svg xmlns="http://www.w3.org/2000/svg" width="21" height="35" viewBox="0 0 21 35" fill="none">
  <path d="M10.7105 0.724121V13.0747C10.7105 13.1272 10.6581 13.1796 10.6057 13.1796C10.2387 13.3399 9.9241 13.4987 9.5571 13.6574C9.08525 13.8687 8.56096 14.0814 8.08911 14.3465L6.35897 15.1404L4.94341 15.777L3.21327 16.5725C2.74142 16.7852 2.26956 16.9964 1.74528 17.2615C1.37828 17.4203 0.958854 17.633 0.591855 17.7918C0.539427 17.7918 0.539427 17.8442 0.486999 17.7918H0.43457C0.591855 17.5267 0.74914 17.3139 0.906425 17.0503C1.74528 15.6183 2.63656 14.1877 3.47541 12.7557C4.3667 11.2203 5.31041 9.68188 6.20169 8.14498C7.04054 6.71443 7.87939 5.28389 8.71825 3.90577C9.34739 2.84372 9.97653 1.8386 10.5532 0.776549C10.6581 0.776549 10.6581 0.724121 10.7105 0.724121C10.6581 0.724121 10.7105 0.724121 10.7105 0.724121V0.724121Z" fill="#F0FF45"/>
  <path d="M20.8817 17.7918C20.0953 18.3221 19.2565 18.7984 18.47 19.2748C15.901 20.8132 13.3845 22.2977 10.8155 23.8346C10.7631 23.8346 10.7631 23.887 10.7106 23.887C10.6582 23.887 10.6582 23.8346 10.6582 23.8346V13.1796C10.6582 13.1272 10.7106 13.1272 10.7631 13.1272C10.9728 13.2321 11.1825 13.3399 11.4446 13.4448C12.0738 13.7638 12.7553 14.029 13.3845 14.3465C13.9612 14.6117 14.4855 14.8768 15.0622 15.088C15.6389 15.3532 16.1632 15.6183 16.7399 15.8834C17.2117 16.0961 17.736 16.3074 18.2079 16.5725C18.6797 16.7852 19.204 16.9964 19.6759 17.2615C20.0429 17.4203 20.4099 17.633 20.8293 17.7918C20.8293 17.7394 20.8293 17.7918 20.8817 17.7918V17.7918Z" fill="#141414"/>
  <path d="M10.7108 34.2769C10.7108 34.2769 10.6584 34.2769 10.7108 34.2769C10.6584 34.2769 10.6584 34.2769 10.606 34.2229C9.55741 32.74 8.56127 31.3079 7.5127 29.8234L4.367 25.3715C3.37086 23.941 2.3223 22.5104 1.32616 21.0245L0.539733 19.9115C0.539733 19.8591 0.487305 19.8591 0.487305 19.8066C0.539733 19.8066 0.539733 19.8591 0.592161 19.8591C2.00773 20.7069 3.47572 21.5548 4.89129 22.4026C6.51656 23.4107 8.19427 24.3649 9.81955 25.3715C10.0817 25.5303 10.3963 25.6891 10.6584 25.8479C10.7108 25.8479 10.7108 25.9018 10.7108 25.9542V34.2769Z" fill="#F0FF45"/>
  <path d="M0.43457 17.237C0.43457 17.1846 0.43457 17.1846 0.43457 17.237C0.958854 16.9719 1.48314 16.7607 2.00742 16.4955L4.05213 15.5413C4.57641 15.2762 5.10069 15.065 5.62498 14.7998C6.35897 14.4283 7.1454 14.1108 7.87939 13.7393C8.40368 13.5266 8.92796 13.2614 9.45224 13.0502C9.81924 12.8914 10.1862 12.7327 10.5532 12.52C10.6057 12.52 10.6057 12.4675 10.6581 12.4675V23.2797C10.6057 23.3337 10.6057 23.2797 10.5532 23.2797C10.396 23.1749 10.2387 23.121 10.1338 23.0146L0.539427 17.2909C0.486999 17.237 0.43457 17.237 0.43457 17.237ZM20.7243 19.1993C20.7243 19.2518 20.7243 19.2518 20.6719 19.3042C17.6311 23.6512 14.5902 27.9444 11.5494 32.2914C11.2348 32.7678 10.9202 33.1917 10.6057 33.6695V25.2406C11.2872 24.8166 11.9688 24.3927 12.6504 24.0227L20.6719 19.2518C20.6719 19.1993 20.7243 19.1993 20.7243 19.1993V19.1993Z" fill="#3C3C3B"/>
  <path d="M10.71 13.1272V0.779541L20.7762 17.6345C20.8286 17.6869 20.8811 17.7394 20.8811 17.7933C20.6713 17.6884 20.4616 17.5806 20.1995 17.4757C19.9373 17.3694 19.6752 17.2106 19.4131 17.1042C19.2558 17.0518 19.0985 16.9454 18.8888 16.8915C18.6266 16.7867 18.3121 16.6264 18.0499 16.5215C17.8926 16.4676 17.7354 16.3627 17.5781 16.3088L16.4771 15.8325C16.2674 15.7261 16.1101 15.6737 15.9004 15.5673C15.6382 15.461 15.3761 15.3022 15.1139 15.1958C14.9567 15.1434 14.7994 15.0371 14.6421 14.9846L13.5411 14.5068C13.3314 14.4019 13.1741 14.348 12.9644 14.2416C12.7022 14.1368 12.4401 13.9765 12.178 13.8701C12.0207 13.7653 11.811 13.7114 11.6537 13.6065L10.71 13.1287V13.1272Z" fill="white"/>
</svg>