<svg xmlns="http://www.w3.org/2000/svg" width="8" height="13" viewBox="0 0 8 13" fill="none">
  <path d="M3.70294 0.821533V5.00212C3.70294 5.01986 3.68519 5.03761 3.66744 5.03761C3.54322 5.09186 3.43674 5.14561 3.31251 5.19936C3.15279 5.27085 2.97533 5.34285 2.81561 5.4326L2.22997 5.70133L1.75081 5.91683L1.16518 6.18607C1.00546 6.25807 0.845739 6.32956 0.668274 6.41931C0.544048 6.47305 0.402075 6.54505 0.277849 6.5988C0.260103 6.5988 0.260103 6.61655 0.242356 6.5988H0.224609C0.277849 6.50905 0.331089 6.43705 0.384329 6.34781C0.668274 5.86308 0.969965 5.37885 1.25391 4.89412C1.5556 4.3744 1.87504 3.85366 2.17673 3.33343C2.46068 2.84921 2.74462 2.36498 3.02857 1.8985C3.24153 1.539 3.45448 1.19877 3.6497 0.83928C3.68519 0.83928 3.68519 0.821533 3.70294 0.821533C3.68519 0.821533 3.70294 0.821533 3.70294 0.821533V0.821533Z" fill="#8C8C8C"/>
  <path d="M7.14515 6.59896C6.87895 6.77845 6.59501 6.93969 6.32881 7.10093C5.45923 7.62167 4.60739 8.12415 3.73781 8.64438C3.72006 8.64438 3.72006 8.66212 3.70232 8.66212C3.68457 8.66212 3.68457 8.64438 3.68457 8.64438V5.03777C3.68457 5.02002 3.70232 5.02002 3.72006 5.02002C3.79105 5.05551 3.86204 5.09202 3.95077 5.12751C4.16373 5.23551 4.39443 5.32526 4.60739 5.43275C4.8026 5.5225 4.98007 5.61225 5.17528 5.68374C5.37049 5.77349 5.54796 5.86323 5.74317 5.95298C5.90289 6.02498 6.08036 6.09648 6.24008 6.18622C6.3998 6.25822 6.57726 6.32972 6.73698 6.41946C6.86121 6.47321 6.98543 6.54521 7.1274 6.59896C7.1274 6.58121 7.1274 6.59896 7.14515 6.59896V6.59896Z" fill="#141414"/>
  <path d="M3.70277 12.1788C3.70277 12.1788 3.68502 12.1788 3.70277 12.1788C3.68502 12.1788 3.68502 12.1788 3.66728 12.1606C3.31234 11.6586 2.97516 11.1739 2.62023 10.6714L1.55543 9.16443C1.21825 8.68021 0.863317 8.19598 0.526133 7.69299L0.259934 7.31625C0.259934 7.29851 0.242188 7.29851 0.242188 7.28076C0.259934 7.28076 0.259934 7.29851 0.277681 7.29851C0.756838 7.5855 1.25374 7.87248 1.7329 8.15947C2.28304 8.50071 2.85093 8.8237 3.40108 9.16443C3.48981 9.21818 3.59629 9.27193 3.68502 9.32567C3.70277 9.32567 3.70277 9.34393 3.70277 9.36167V12.1788Z" fill="#8C8C8C"/>
  <path d="M0.224609 6.41106C0.224609 6.39331 0.224609 6.39331 0.224609 6.41106C0.402075 6.32131 0.579541 6.24982 0.757006 6.16007L1.44912 5.83709C1.62659 5.74734 1.80405 5.67585 1.98152 5.5861C2.22997 5.46035 2.49617 5.35286 2.74462 5.22711C2.92209 5.15511 3.09955 5.06536 3.27702 4.99387C3.40125 4.94012 3.52547 4.88638 3.6497 4.81438C3.66744 4.81438 3.66744 4.79663 3.68519 4.79663V8.45648C3.66744 8.47473 3.66744 8.45648 3.6497 8.45648C3.59646 8.42099 3.54322 8.40273 3.50772 8.36673L0.260103 6.42932C0.242356 6.41106 0.224609 6.41106 0.224609 6.41106ZM7.09253 7.07529C7.09253 7.09304 7.09253 7.09304 7.07479 7.11078C6.04548 8.58223 5.01618 10.0354 3.98688 11.5069C3.8804 11.6681 3.77392 11.8116 3.66744 11.9733V9.1202C3.89815 8.97671 4.12885 8.83321 4.35956 8.70797L7.07479 7.09304C7.07479 7.07529 7.09253 7.07529 7.09253 7.07529V7.07529Z" fill="#3C3C3B"/>
  <path d="M3.70312 5.0199V0.840332L7.11047 6.5456C7.12821 6.56335 7.14596 6.58109 7.14596 6.59935C7.07497 6.56385 7.00399 6.52735 6.91525 6.49185C6.82652 6.45585 6.73779 6.40211 6.64906 6.36611C6.59582 6.34836 6.54258 6.31236 6.47159 6.29411C6.38286 6.25861 6.27638 6.20436 6.18765 6.16887C6.13441 6.15061 6.08117 6.11512 6.02793 6.09687L5.65525 5.93563C5.58426 5.89963 5.53102 5.88188 5.46004 5.84588C5.3713 5.80988 5.28257 5.75613 5.19384 5.72013C5.1406 5.70238 5.08736 5.66638 5.03412 5.64864L4.66144 5.48689C4.59045 5.4514 4.53721 5.43314 4.46623 5.39714C4.37749 5.36165 4.28876 5.3074 4.20003 5.2714C4.14679 5.2359 4.0758 5.21765 4.02256 5.18216L3.70312 5.02041V5.0199Z" fill="#343434"/>
</svg>