<svg xmlns="http://www.w3.org/2000/svg" width="18" height="19" viewBox="0 0 18 19" fill="none">
  <path d="M15.75 17H2.25C1.9425 17 1.6875 16.745 1.6875 16.4375C1.6875 16.13 1.9425 15.875 2.25 15.875H15.75C16.0575 15.875 16.3125 16.13 16.3125 16.4375C16.3125 16.745 16.0575 17 15.75 17Z" fill="#725DFF"/>
  <path d="M14.2649 3.11C12.8099 1.655 11.3849 1.6175 9.89243 3.11L8.98493 4.0175C8.90993 4.0925 8.87993 4.2125 8.90993 4.3175C9.47993 6.305 11.0699 7.895 13.0574 8.465C13.0874 8.4725 13.1174 8.48 13.1474 8.48C13.2299 8.48 13.3049 8.45 13.3649 8.39L14.2649 7.4825C15.0074 6.7475 15.3674 6.035 15.3674 5.315C15.3749 4.5725 15.0149 3.8525 14.2649 3.11Z" fill="#725DFF"/>
  <path d="M11.7073 9.14748C11.4898 9.04248 11.2798 8.93748 11.0773 8.81748C10.9123 8.71998 10.7548 8.61498 10.5973 8.50248C10.4698 8.41998 10.3198 8.29998 10.1773 8.17998C10.1623 8.17248 10.1098 8.12748 10.0498 8.06748C9.80225 7.85748 9.52475 7.58748 9.27725 7.28748C9.25475 7.27248 9.21725 7.21998 9.16475 7.15248C9.08975 7.06248 8.96225 6.91248 8.84975 6.73998C8.75975 6.62748 8.65475 6.46248 8.55725 6.29748C8.43725 6.09498 8.33225 5.89248 8.22725 5.68248V5.68248C8.08958 5.38747 7.70239 5.29983 7.4722 5.53003L3.25475 9.74748C3.15725 9.84498 3.06725 10.0325 3.04475 10.16L2.63975 13.0325C2.56475 13.5425 2.70725 14.0225 3.02225 14.345C3.29225 14.6075 3.66725 14.75 4.07225 14.75C4.16225 14.75 4.25225 14.7425 4.34225 14.7275L7.22225 14.3225C7.35725 14.3 7.54475 14.21 7.63475 14.1125L11.8592 9.88807C12.0847 9.66248 12 9.27433 11.7073 9.14748V9.14748Z" fill="#725DFF"/>
</svg>