<svg width="301" height="230" viewBox="0 0 301 230" fill="none" xmlns="http://www.w3.org/2000/svg">
<g filter="url(#filter0_f_135_1873)">
<ellipse cx="147.735" cy="186.812" rx="110.607" ry="21.3375" fill="#725DFF"/>
</g>
<path d="M148.95 229.402C212.298 229.402 263.651 178.049 263.651 114.701C263.651 51.3534 212.298 0 148.95 0C85.6024 0 34.249 51.3534 34.249 114.701C34.249 178.049 85.6024 229.402 148.95 229.402Z" fill="url(#paint0_linear_135_1873)"/>
<g filter="url(#filter1_d_135_1873)">
<path d="M245.031 77.624L146.74 146.219L48.4492 77.624L138.427 14.8054C140.867 13.1047 143.77 12.1929 146.744 12.1929C149.718 12.1929 152.621 13.1047 155.061 14.8054L173.01 27.3528L177.709 30.6161L225.027 63.657L230.011 67.1569L245.031 77.624Z" fill="url(#paint1_linear_135_1873)"/>
</g>
<path d="M130.758 135.066L48.4492 193.594V77.624L130.758 135.066Z" fill="url(#paint2_linear_135_1873)"/>
<path d="M162.73 135.066L245.039 193.594V77.624L162.73 135.066Z" fill="url(#paint3_linear_135_1873)"/>
<path d="M48.4492 193.594L138.321 129.699C140.78 127.947 143.725 127.006 146.744 127.006C149.764 127.006 152.708 127.947 155.167 129.699L245.031 193.594H48.4492Z" fill="url(#paint4_linear_135_1873)"/>
<g filter="url(#filter2_d_135_1873)">
<path d="M58.8351 56.6099C43.7665 63.6586 27.5741 67.9977 11 69.4281C13.2395 74.634 29.1518 100.693 76.3877 122.165C77.6646 122.361 107.161 108.639 123.349 99.2293C122.799 100.015 73.0678 81.7159 58.8351 56.6099Z" fill="url(#paint5_linear_135_1873)"/>
</g>
<path d="M60.0017 69.566C59.3083 69.0849 58.43 68.955 57.627 69.2148L31.263 77.7443C30.3186 78.0499 29.9821 79.2131 30.6176 79.9757C31.1293 80.5898 31.9669 80.8243 32.7231 80.5653L59.7597 71.3048C60.5227 71.0435 60.6643 70.0257 60.0017 69.566Z" fill="#725DFF"/>
<path d="M59.5446 80.0712C58.876 79.4433 57.9162 79.2341 57.0468 79.5266L38.7954 85.6691C37.9906 85.9399 37.7064 86.9329 38.2461 87.5885C38.687 88.1241 39.4136 88.3306 40.0703 88.107L59.2168 81.5879C59.8632 81.3678 60.0424 80.5385 59.5446 80.0712Z" fill="#725DFF"/>
<path d="M69.3408 85.2731C68.6431 84.7143 67.7045 84.5596 66.8643 84.865L45.841 92.5059C45.0158 92.8058 44.7675 93.8526 45.37 94.4911C45.8309 94.9797 46.5387 95.1464 47.1693 94.915L69.0794 86.8748C69.7605 86.6248 69.9071 85.7266 69.3408 85.2731Z" fill="#725DFF"/>
<path d="M76.6907 101.044C76.0444 100.33 75.0258 100.086 74.1258 100.429L62.1109 105.014C61.3731 105.295 61.1072 106.203 61.5762 106.838C62.0158 107.434 62.7993 107.661 63.4894 107.394L76.3676 102.406C76.923 102.191 77.0902 101.486 76.6907 101.044Z" fill="#725DFF"/>
<g filter="url(#filter3_d_135_1873)">
<path d="M233.019 92.9507C251.291 101.498 270.925 106.759 291.022 108.494C288.307 114.806 269.012 146.404 211.736 172.44C210.188 172.678 174.421 156.039 154.793 144.629C155.46 145.582 215.762 123.393 233.019 92.9507Z" fill="url(#paint6_linear_135_1873)"/>
</g>
<path d="M231.605 108.661C232.446 108.078 233.511 107.92 234.485 108.235L266.453 118.578C267.598 118.948 268.006 120.359 267.235 121.284C266.615 122.028 265.599 122.313 264.682 121.998L231.899 110.77C230.974 110.453 230.802 109.219 231.605 108.661Z" fill="#725DFF"/>
<path d="M222.656 117.175C223.467 116.413 224.63 116.16 225.685 116.514L247.815 123.962C248.791 124.291 249.136 125.495 248.481 126.29C247.947 126.939 247.066 127.19 246.27 126.919L223.053 119.014C222.27 118.747 222.052 117.741 222.656 117.175Z" fill="#725DFF"/>
<path d="M213.457 124.242C214.304 123.565 215.442 123.377 216.46 123.747L241.952 133.012C242.953 133.376 243.254 134.645 242.523 135.42C241.965 136.012 241.106 136.214 240.342 135.934L213.774 126.184C212.949 125.881 212.771 124.792 213.457 124.242Z" fill="#725DFF"/>
<path d="M192.759 138.382C193.543 137.515 194.778 137.219 195.869 137.636L210.438 143.195C211.333 143.536 211.655 144.637 211.086 145.407C210.553 146.129 209.603 146.405 208.767 146.081L193.151 140.033C192.478 139.772 192.275 138.917 192.759 138.382Z" fill="#725DFF"/>
<path d="M202.269 130.831C203.131 130.29 204.195 130.178 205.151 130.528L238.72 142.801C239.792 143.193 240.052 144.592 239.192 145.344C238.623 145.841 237.828 145.987 237.119 145.726L202.492 132.97C201.558 132.626 201.426 131.36 202.269 130.831Z" fill="#725DFF"/>
<path d="M83.9612 88.7201C83.25 88.274 82.3725 88.1816 81.584 88.4699L53.9004 98.592C53.0156 98.9155 52.8012 100.069 53.5108 100.689C53.9801 101.099 54.6357 101.22 55.2204 101.004L83.7777 90.4845C84.5478 90.2008 84.6565 89.1562 83.9612 88.7201Z" fill="#725DFF"/>
<path d="M243.971 26.9983C243.971 29.6438 241.827 31.7884 239.181 31.7884C236.536 31.7884 234.391 29.6438 234.391 26.9983C234.391 24.3528 236.536 22.2082 239.181 22.2082C241.827 22.2082 243.971 24.3528 243.971 26.9983Z" stroke="url(#paint7_linear_135_1873)" stroke-width="2.61276"/>
<circle cx="69.3523" cy="204.666" r="4.79006" stroke="url(#paint8_linear_135_1873)" stroke-width="2.61276"/>
<circle cx="216.538" cy="214.246" r="4.79006" stroke="url(#paint9_linear_135_1873)" stroke-width="2.61276"/>
<path d="M85.6095 31.9318C86.1244 29.7988 89.1583 29.7988 89.6732 31.9318L91.4061 39.1106C91.5901 39.8728 92.1852 40.4679 92.9475 40.6519L100.126 42.3849C102.259 42.8998 102.259 45.9337 100.126 46.4486L92.9475 48.1815C92.1852 48.3655 91.5901 48.9606 91.4061 49.7229L89.6732 56.9017C89.1583 59.0347 86.1244 59.0347 85.6095 56.9017L83.8766 49.7229C83.6926 48.9606 83.0974 48.3655 82.3352 48.1815L75.1564 46.4486C73.0234 45.9337 73.0234 42.8998 75.1564 42.3849L82.3352 40.6519C83.0974 40.4679 83.6926 39.8728 83.8766 39.1106L85.6095 31.9318Z" fill="url(#paint10_linear_135_1873)"/>
<path d="M260.119 183.417C260.634 181.284 263.668 181.284 264.183 183.417L265.916 190.596C266.1 191.358 266.695 191.953 267.457 192.137L274.636 193.87C276.769 194.385 276.769 197.419 274.636 197.934L267.457 199.667C266.695 199.851 266.1 200.446 265.916 201.208L264.183 208.387C263.668 210.52 260.634 210.52 260.119 208.387L258.386 201.208C258.202 200.446 257.607 199.851 256.845 199.667L249.666 197.934C247.533 197.419 247.533 194.385 249.666 193.87L256.845 192.137C257.607 191.953 258.202 191.358 258.386 190.596L260.119 183.417Z" fill="url(#paint11_linear_135_1873)"/>
<path d="M37.4822 166.614C38.8062 166.402 39.8633 167.703 39.3849 168.956L36.1558 177.411C35.6775 178.664 34.0225 178.929 33.1768 177.888L27.4689 170.864C26.6233 169.823 27.2212 168.258 28.5452 168.046L37.4822 166.614Z" fill="url(#paint12_linear_135_1873)"/>
<path d="M263.578 80.4219C263.246 79.1226 264.446 77.9519 265.737 78.3147L274.45 80.7633C275.741 81.126 276.155 82.7502 275.196 83.6867L268.718 90.0084C267.759 90.9449 266.145 90.4915 265.814 89.1922L263.578 80.4219Z" fill="url(#paint13_linear_135_1873)"/>
<defs>
<filter id="filter0_f_135_1873" x="15.3549" y="143.702" width="264.76" height="86.2213" filterUnits="userSpaceOnUse" color-interpolation-filters="sRGB">
<feFlood flood-opacity="0" result="BackgroundImageFix"/>
<feBlend mode="normal" in="SourceGraphic" in2="BackgroundImageFix" result="shape"/>
<feGaussianBlur stdDeviation="10.8865" result="effect1_foregroundBlur_135_1873"/>
</filter>
<filter id="filter1_d_135_1873" x="44.9655" y="12.1929" width="203.549" height="140.993" filterUnits="userSpaceOnUse" color-interpolation-filters="sRGB">
<feFlood flood-opacity="0" result="BackgroundImageFix"/>
<feColorMatrix in="SourceAlpha" type="matrix" values="0 0 0 0 0 0 0 0 0 0 0 0 0 0 0 0 0 0 127 0" result="hardAlpha"/>
<feOffset dy="3.48368"/>
<feGaussianBlur stdDeviation="1.74184"/>
<feComposite in2="hardAlpha" operator="out"/>
<feColorMatrix type="matrix" values="0 0 0 0 0 0 0 0 0 0 0 0 0 0 0 0 0 0 0.25 0"/>
<feBlend mode="normal" in2="BackgroundImageFix" result="effect1_dropShadow_135_1873"/>
<feBlend mode="normal" in="SourceGraphic" in2="effect1_dropShadow_135_1873" result="shape"/>
</filter>
<filter id="filter2_d_135_1873" x="0.548963" y="49.6425" width="133.251" height="86.4587" filterUnits="userSpaceOnUse" color-interpolation-filters="sRGB">
<feFlood flood-opacity="0" result="BackgroundImageFix"/>
<feColorMatrix in="SourceAlpha" type="matrix" values="0 0 0 0 0 0 0 0 0 0 0 0 0 0 0 0 0 0 127 0" result="hardAlpha"/>
<feOffset dy="3.48368"/>
<feGaussianBlur stdDeviation="5.22552"/>
<feComposite in2="hardAlpha" operator="out"/>
<feColorMatrix type="matrix" values="0 0 0 0 0.0196078 0 0 0 0 0.168627 0 0 0 0 0.396078 0 0 0 0.15 0"/>
<feBlend mode="normal" in2="BackgroundImageFix" result="effect1_dropShadow_135_1873"/>
<feBlend mode="normal" in="SourceGraphic" in2="effect1_dropShadow_135_1873" result="shape"/>
</filter>
<filter id="filter3_d_135_1873" x="134.707" y="91.2088" width="165.841" height="109.103" filterUnits="userSpaceOnUse" color-interpolation-filters="sRGB">
<feFlood flood-opacity="0" result="BackgroundImageFix"/>
<feColorMatrix in="SourceAlpha" type="matrix" values="0 0 0 0 0 0 0 0 0 0 0 0 0 0 0 0 0 0 127 0" result="hardAlpha"/>
<feOffset dx="-5.28021" dy="13.0638"/>
<feGaussianBlur stdDeviation="7.40282"/>
<feComposite in2="hardAlpha" operator="out"/>
<feColorMatrix type="matrix" values="0 0 0 0 0.021441 0 0 0 0 0.168056 0 0 0 0 0.395833 0 0 0 0.15 0"/>
<feBlend mode="normal" in2="BackgroundImageFix" result="effect1_dropShadow_135_1873"/>
<feBlend mode="normal" in="SourceGraphic" in2="effect1_dropShadow_135_1873" result="shape"/>
</filter>
<linearGradient id="paint0_linear_135_1873" x1="148.066" y1="-37.3495" x2="150.416" y2="365.463" gradientUnits="userSpaceOnUse">
<stop stop-color="#CAE0FF" stop-opacity="0"/>
<stop offset="0.0001" stop-color="#725DFF" stop-opacity="0.03"/>
<stop offset="1" stop-color="#725DFF" stop-opacity="0.59"/>
</linearGradient>
<linearGradient id="paint1_linear_135_1873" x1="25.9243" y1="37.3227" x2="231.54" y2="298.697" gradientUnits="userSpaceOnUse">
<stop stop-color="#B5AAFF"/>
<stop offset="1" stop-color="#E0DBFF"/>
</linearGradient>
<linearGradient id="paint2_linear_135_1873" x1="39.018" y1="99.3683" x2="202.405" y2="199.869" gradientUnits="userSpaceOnUse">
<stop stop-color="#B5AAFF"/>
<stop offset="1" stop-color="#725DFF"/>
</linearGradient>
<linearGradient id="paint3_linear_135_1873" x1="153.299" y1="99.3683" x2="316.686" y2="199.869" gradientUnits="userSpaceOnUse">
<stop stop-color="#B5AAFF"/>
<stop offset="1" stop-color="#725DFF"/>
</linearGradient>
<linearGradient id="paint4_linear_135_1873" x1="25.9243" y1="139.491" x2="97.2002" y2="321.856" gradientUnits="userSpaceOnUse">
<stop stop-color="#B5AAFF"/>
<stop offset="1" stop-color="#725DFF"/>
</linearGradient>
<linearGradient id="paint5_linear_135_1873" x1="136.222" y1="68.9018" x2="40.3395" y2="211.312" gradientUnits="userSpaceOnUse">
<stop stop-color="#B5AAFF"/>
<stop offset="1" stop-color="#725DFF"/>
</linearGradient>
<linearGradient id="paint6_linear_135_1873" x1="139.183" y1="107.855" x2="255.446" y2="280.536" gradientUnits="userSpaceOnUse">
<stop stop-color="#B5AAFF"/>
<stop offset="1" stop-color="#725DFF"/>
</linearGradient>
<linearGradient id="paint7_linear_135_1873" x1="231.688" y1="23.188" x2="250.739" y2="39.6992" gradientUnits="userSpaceOnUse">
<stop stop-color="#B5AAFF"/>
<stop offset="1" stop-color="#725DFF"/>
</linearGradient>
<linearGradient id="paint8_linear_135_1873" x1="61.8588" y1="200.856" x2="80.9101" y2="217.367" gradientUnits="userSpaceOnUse">
<stop stop-color="#B5AAFF"/>
<stop offset="1" stop-color="#725DFF"/>
</linearGradient>
<linearGradient id="paint9_linear_135_1873" x1="209.044" y1="210.436" x2="228.096" y2="226.947" gradientUnits="userSpaceOnUse">
<stop stop-color="#B5AAFF"/>
<stop offset="1" stop-color="#725DFF"/>
</linearGradient>
<linearGradient id="paint10_linear_135_1873" x1="61.9492" y1="31.3529" x2="127.268" y2="87.9627" gradientUnits="userSpaceOnUse">
<stop stop-color="#B5AAFF"/>
<stop offset="1" stop-color="#725DFF"/>
</linearGradient>
<linearGradient id="paint11_linear_135_1873" x1="236.459" y1="182.838" x2="301.778" y2="239.448" gradientUnits="userSpaceOnUse">
<stop stop-color="#B5AAFF"/>
<stop offset="1" stop-color="#725DFF"/>
</linearGradient>
<linearGradient id="paint12_linear_135_1873" x1="31.1755" y1="159.889" x2="30.0341" y2="195.886" gradientUnits="userSpaceOnUse">
<stop stop-color="#B5AAFF"/>
<stop offset="1" stop-color="#725DFF"/>
</linearGradient>
<linearGradient id="paint13_linear_135_1873" x1="257.452" y1="87.3128" x2="293.405" y2="85.1835" gradientUnits="userSpaceOnUse">
<stop stop-color="#B5AAFF"/>
<stop offset="1" stop-color="#725DFF"/>
</linearGradient>
</defs>
</svg>
